<svg xmlns="http://www.w3.org/2000/svg" width="29.315" height="29.306" viewBox="0 0 29.315 29.306">
  <path id="np_key_750632_000000" d="M17.655,23.616l1.551,1.551a1.343,1.343,0,0,0,.955.4h1.986v1.726h0a1.592,1.592,0,0,0,1.592,1.592h1.726v1.981a1.358,1.358,0,0,0,.4.955l1.1,1.1a1.248,1.248,0,0,0,.853.347h4.388a1.055,1.055,0,0,0,1.051-1.051V27.832a1.278,1.278,0,0,0-.367-.883L23.6,17.668a10.156,10.156,0,1,0-5.946,5.948ZM7.829,7.841a8.867,8.867,0,0,1,14.44,9.718.638.638,0,0,0,.138.7l9.577,9.577V32H27.845l-1.1-1.1a.078.078,0,0,1-.022-.057V28.494a.911.911,0,0,0-.91-.91h-2.1a.3.3,0,0,1-.214-.09.319.319,0,0,1-.088-.216V25.2a.911.911,0,0,0-.91-.91H20.148a.078.078,0,0,1-.057-.025l-1.847-1.847h0a.638.638,0,0,0-.7-.137A8.868,8.868,0,0,1,7.829,7.841Zm4.225,7.413A3.185,3.185,0,1,0,9.8,14.322a3.184,3.184,0,0,0,2.251.933Zm0-5.07a1.9,1.9,0,1,1-1.352.557,1.911,1.911,0,0,1,1.352-.557Z" transform="translate(-3.946 -3.964)" fill="#004041"/>
</svg>
