<svg width="40" height="40" viewBox="0 0 40 40" fill="none" xmlns="http://www.w3.org/2000/svg">
<g clip-path="url(#clip0_2368_930)">
<path d="M37.6567 13.2586C37.833 13.167 37.9953 13.0509 38.1389 12.9136L39.4484 11.6042C39.8025 11.2324 40 10.7387 40 10.2252C40 9.71178 39.8025 9.21802 39.4484 8.84625L31.1745 0.568774C30.808 0.204477 30.3123 0 29.7955 0C29.2788 0 28.783 0.204477 28.4165 0.568774L27.1071 1.87821C26.9525 2.00851 26.8322 2.1747 26.7567 2.36226L25.1709 0.776478C24.8045 0.412181 24.3087 0.207705 23.792 0.207705C23.2752 0.207705 22.7795 0.412181 22.413 0.776478L21.1035 2.08592C20.7392 2.4524 20.5348 2.94815 20.5348 3.4649C20.5348 3.98164 20.7392 4.47739 21.1035 4.84387L25.7995 9.5398L9.45223 25.9466L4.7563 21.2507C4.38982 20.8864 3.89407 20.6819 3.37733 20.6819C2.86058 20.6819 2.36483 20.8864 1.99835 21.2507L0.688908 22.4915C0.324611 22.858 0.120135 23.3538 0.120135 23.8705C0.120135 24.3872 0.324611 24.883 0.688908 25.2495L2.34332 26.9039C2.16705 26.9955 2.00468 27.1116 1.86108 27.2489L0.551643 28.5583C0.197523 28.9301 0 29.4238 0 29.9373C0 30.4507 0.197523 30.9445 0.551643 31.3163L8.82731 39.5919C9.2022 39.9416 9.69453 40.1382 10.2072 40.1428C10.7173 40.1255 11.2053 39.9307 11.5871 39.5919L12.8965 38.2825C13.0489 38.1521 13.1673 37.9866 13.2415 37.8002L14.8959 39.4547C15.2708 39.8044 15.7631 40.0009 16.2758 40.0055C16.7859 39.9882 17.2739 39.7934 17.6557 39.4547L18.9651 38.1452C19.3294 37.7787 19.5339 37.283 19.5339 36.7662C19.5339 36.2495 19.3294 35.7537 18.9651 35.3873L14.2692 30.6913L30.6128 14.3477L35.3087 19.0436C35.6836 19.3933 36.1759 19.5899 36.6886 19.5945C37.1987 19.5772 37.6867 19.3824 38.0685 19.0436L39.3779 17.7342C39.7422 17.3677 39.9467 16.872 39.9467 16.3552C39.9467 15.8385 39.7422 15.3427 39.3779 14.9762L37.6567 13.2586ZM27.9325 3.32492C27.9467 3.1785 27.9936 3.03715 28.0698 2.91132L29.3792 1.60188C29.4986 1.51248 29.6437 1.46416 29.7928 1.46416C29.9419 1.46416 30.0871 1.51248 30.2064 1.60188L38.4821 9.87754C38.5342 9.93196 38.5736 9.99732 38.5974 10.0689C38.6211 10.1404 38.6286 10.2163 38.6193 10.2911C38.6052 10.4376 38.5583 10.5789 38.4821 10.7047L37.1726 12.0142C37.0581 12.1143 36.9112 12.1695 36.759 12.1695C36.6069 12.1695 36.46 12.1143 36.3454 12.0142L28.0716 3.74033C27.9954 3.6145 27.9485 3.47314 27.9343 3.32673L27.9325 3.32492ZM12.0711 36.843C12.057 36.9894 12.01 37.1308 11.9338 37.2566L10.6244 38.566C10.5099 38.6661 10.3629 38.7213 10.2108 38.7213C10.0587 38.7213 9.91174 38.6661 9.7972 38.566L1.51973 30.2922C1.43033 30.1728 1.38201 30.0277 1.38201 29.8786C1.38201 29.7294 1.43033 29.5843 1.51973 29.465L2.82917 28.1555C2.88297 28.1015 2.94826 28.0603 3.02018 28.035C3.09209 28.0096 3.16879 28.0009 3.24458 28.0092C3.39099 28.0234 3.53235 28.0703 3.65818 28.1465L11.9338 36.4222C12.0111 36.5502 12.058 36.6941 12.0711 36.843ZM17.8634 36.2921C17.9635 36.4067 18.0186 36.5536 18.0186 36.7057C18.0186 36.8578 17.9635 37.0048 17.8634 37.1193L16.5539 38.4288C16.4394 38.5289 16.2924 38.584 16.1403 38.584C15.9882 38.584 15.8412 38.5289 15.7267 38.4288L1.65157 24.3609C1.55148 24.2463 1.49631 24.0994 1.49631 23.9473C1.49631 23.7951 1.55148 23.6482 1.65157 23.5337L2.96101 22.2242C3.01543 22.1721 3.08079 22.1327 3.15233 22.1089C3.22388 22.0852 3.29981 22.0777 3.37462 22.087C3.52103 22.1011 3.66239 22.148 3.78822 22.2242L17.8634 36.2921ZM13.1674 29.6709L10.4095 26.9129L26.7567 10.5693L29.5147 13.3272L13.1674 29.6709ZM38.2726 16.7065L36.9631 18.0159C36.8486 18.116 36.7016 18.1712 36.5495 18.1712C36.3974 18.1712 36.2505 18.116 36.1359 18.0159L22.0716 3.94803C21.9715 3.8335 21.9164 3.68654 21.9164 3.53443C21.9164 3.38232 21.9715 3.23537 22.0716 3.12083L23.3811 1.81139C23.4355 1.75923 23.5008 1.71985 23.5724 1.6961C23.6439 1.67236 23.7199 1.66485 23.7947 1.67412C23.9411 1.68828 24.0824 1.73519 24.2083 1.81139L38.2762 15.8793C38.3406 15.9273 38.3929 15.9896 38.429 16.0613C38.4651 16.133 38.484 16.2122 38.4842 16.2924C38.4844 16.3727 38.4658 16.452 38.43 16.5238C38.3942 16.5957 38.3422 16.6583 38.278 16.7065H38.2726Z" fill="#BEA473"/>
</g>
<defs>
<clipPath id="clip0_2368_930">
<rect width="40" height="40" fill="white"/>
</clipPath>
</defs>
</svg>
