<svg xmlns="http://www.w3.org/2000/svg" width="30.674" height="30.678" viewBox="0 0 30.674 30.678">
  <g id="np_tag_2185184_000000" transform="translate(-4.293 -4.285)">
    <path id="Path_48" data-name="Path 48" d="M16.755,4.29,5.738,4.285A1.439,1.439,0,0,0,4.3,5.723L4.293,16.747a1.435,1.435,0,0,0,.421,1.017L21.488,34.541a1.438,1.438,0,0,0,2.034,0L34.546,23.518a1.436,1.436,0,0,0,0-2.033L17.771,4.713a1.438,1.438,0,0,0-1.016-.422Zm5.75,27.2L7.17,16.152l0-8.99,8.985,0L31.5,22.5Z" fill="#fff"/>
    <path id="Path_49" data-name="Path 49" d="M35.083,41.759a1.436,1.436,0,0,0,2.033,0l4.632-4.632a1.437,1.437,0,0,0-2.033-2.033l-4.632,4.632A1.436,1.436,0,0,0,35.083,41.759Z" transform="translate(-20.178 -20.191)" fill="#fff"/>
    <path id="Path_50" data-name="Path 50" d="M47.651,54.325a1.436,1.436,0,0,0,2.033,0l4.632-4.632a1.437,1.437,0,0,0-2.033-2.033l-4.632,4.632A1.438,1.438,0,0,0,47.651,54.325Z" transform="translate(-28.53 -28.541)" fill="#fff"/>
    <path id="Path_51" data-name="Path 51" d="M19.007,19.034a1.437,1.437,0,1,0,2.033,0A1.473,1.473,0,0,0,19.007,19.034Z" transform="translate(-9.497 -9.53)" fill="#fff"/>
  </g>
</svg>
